Coordinates
version=1
nRows=9
nColumns=61
inDegrees=no

Units are S.I. units (second, meters, Newtons, ...)
If the header above contains a line with 'inDegrees', this indicates whether rotational values are in degrees (yes) or radians (no).

endheader
time	pelvis_x	pelvis_y	pelvis_z	femur_r_x	femur_r_y	femur_r_z	tibia_r_x	tibia_r_y	tibia_r_z	talus_r_x	talus_r_y	talus_r_z	calcn_r_x	calcn_r_y	calcn_r_z	toes_r_x	toes_r_y	toes_r_z	femur_l_x	femur_l_y	femur_l_z	tibia_l_x	tibia_l_y	tibia_l_z	talus_l_x	talus_l_y	talus_l_z	calcn_l_x	calcn_l_y	calcn_l_z	toes_l_x	toes_l_y	toes_l_z	torso_x	torso_y	torso_z	humerus_r_x	humerus_r_y	humerus_r_z	ulna_r_x	ulna_r_y	ulna_r_z	radius_r_x	radius_r_y	radius_r_z	hand_r_x	hand_r_y	hand_r_z	humerus_l_x	humerus_l_y	humerus_l_z	ulna_l_x	ulna_l_y	ulna_l_z	radius_l_x	radius_l_y	radius_l_z	hand_l_x	hand_l_y	hand_l_z
18.4	0.675629	1.0013	-0.937936	0.741624	0.917164	-0.890755	0.700114	0.516476	-0.932589	0.649332	0.0570276	-0.875528	0.654888	0.0219113	-0.838245	0.660687	0.0219586	-1.01416	0.587828	0.931941	-0.904164	0.516912	0.612157	-1.15103	0.484706	0.149031	-1.11354	0.474113	0.115432	-1.07595	0.442135	0.125152	-1.24876	0.672156	1.05906	-0.834461	0.892623	1.41867	-0.89875	0.920944	1.06984	-0.878484	0.952767	1.05223	-0.898855	0.859828	0.913843	-1.10651	0.511353	1.45262	-0.870717	0.452362	1.10901	-0.833957	0.412821	1.09637	-0.830142	0.377458	0.86701	-0.960732
18.41	0.675723	1.00121	-0.938003	0.741614	0.91705	-0.89071	0.700366	0.516339	-0.93262	0.64956	0.0569052	-0.875463	0.654999	0.0216848	-0.838262	0.660707	0.0221536	-1.01418	0.587847	0.931845	-0.904427	0.516636	0.613884	-1.15416	0.486506	0.151826	-1.10394	0.475966	0.118933	-1.06572	0.44215	0.126233	-1.2383	0.672045	1.05894	-0.83452	0.892801	1.41845	-0.89841	0.921116	1.06962	-0.878047	0.952948	1.05201	-0.898408	0.860038	0.91389	-1.10626	0.5115	1.45258	-0.87104	0.452264	1.10901	-0.834333	0.412712	1.09639	-0.830529	0.377284	0.866957	-0.960964
18.42	0.675858	1.00118	-0.938107	0.741663	0.916994	-0.890751	0.700614	0.516259	-0.932584	0.649714	0.0568203	-0.875547	0.655017	0.0214936	-0.838427	0.660762	0.0224016	-1.01434	0.587923	0.931761	-0.904808	0.516306	0.615692	-1.15746	0.488387	0.155225	-1.09328	0.477922	0.123048	-1.05443	0.442711	0.127688	-1.22682	0.671925	1.0588	-0.834573	0.892978	1.41821	-0.897997	0.921316	1.06939	-0.877546	0.953143	1.05178	-0.897915	0.860184	0.913834	-1.10585	0.511638	1.45252	-0.871401	0.452179	1.10898	-0.834735	0.412617	1.0964	-0.830949	0.377112	0.866923	-0.961299
18.43	0.676052	1.00122	-0.938285	0.741749	0.91697	-0.890878	0.700914	0.516205	-0.93262	0.649808	0.0567865	-0.875605	0.654936	0.021393	-0.838524	0.660809	0.0225429	-1.01443	0.588046	0.931708	-0.905354	0.515882	0.617421	-1.16072	0.490388	0.159093	-1.08189	0.480049	0.127562	-1.04248	0.443501	0.129768	-1.21464	0.671801	1.05866	-0.834667	0.893156	1.41798	-0.897526	0.921519	1.06917	-0.87703	0.953347	1.05157	-0.897405	0.860412	0.913931	-1.10556	0.511778	1.45247	-0.871712	0.452027	1.10898	-0.835048	0.41245	1.09642	-0.831327	0.377007	0.866929	-0.961663
18.44	0.676211	1.00124	-0.93841	0.741761	0.916925	-0.890926	0.701171	0.516138	-0.932732	0.649901	0.056755	-0.875578	0.654876	0.021314	-0.838521	0.660854	0.0226273	-1.01443	0.588103	0.931698	-0.905831	0.515426	0.619424	-1.16421	0.492605	0.164041	-1.06917	0.48241	0.133463	-1.02898	0.444635	0.131859	-1.20088	0.671663	1.05855	-0.834728	0.893336	1.41776	-0.897084	0.921685	1.06895	-0.876513	0.953517	1.05135	-0.896885	0.860645	0.913993	-1.10525	0.51193	1.45245	-0.871972	0.451801	1.10903	-0.835326	0.412204	1.0965	-0.831705	0.376913	0.866988	-0.96204
18.45	0.676284	1.00128	-0.938579	0.741692	0.916924	-0.890968	0.70136	0.516109	-0.932757	0.650006	0.056737	-0.875588	0.654848	0.0212548	-0.838553	0.660917	0.0227133	-1.01445	0.588079	0.931701	-0.906337	0.51505	0.621394	-1.16768	0.494849	0.169731	-1.05579	0.484781	0.140222	-1.01478	0.44598	0.134356	-1.18636	0.67141	1.05849	-0.834859	0.893507	1.41755	-0.896607	0.921793	1.06873	-0.875951	0.953631	1.05113	-0.89631	0.860832	0.913885	-1.10478	0.51207	1.45253	-0.872374	0.45168	1.10913	-0.835911	0.412072	1.09664	-0.832311	0.376717	0.867046	-0.962493
18.46	0.67633	1.0013	-0.9388	0.741522	0.916885	-0.890993	0.701488	0.516038	-0.932759	0.650063	0.0566731	-0.875597	0.654761	0.0211405	-0.838593	0.660991	0.0227935	-1.01449	0.587974	0.931748	-0.906909	0.514727	0.623167	-1.17091	0.497177	0.175886	-1.04222	0.487247	0.147367	-1.00048	0.447608	0.137534	-1.17169	0.671111	1.05846	-0.835072	0.893675	1.41736	-0.896057	0.921787	1.06853	-0.875437	0.953654	1.05092	-0.895745	0.861153	0.913799	-1.10443	0.512209	1.45266	-0.872766	0.451635	1.10926	-0.836594	0.412018	1.0968	-0.832996	0.376562	0.867145	-0.963046
18.47	0.676338	1.00134	-0.938956	0.741296	0.916878	-0.890926	0.701589	0.516005	-0.932794	0.650142	0.0566469	-0.875599	0.654716	0.0210873	-0.838604	0.661084	0.0228321	-1.01449	0.587818	0.931841	-0.907422	0.514418	0.625006	-1.17409	0.499662	0.183061	-1.02782	0.489889	0.155789	-0.985216	0.449716	0.140813	-1.15593	0.67076	1.05848	-0.835232	0.893831	1.41719	-0.895501	0.921755	1.06834	-0.875001	0.953669	1.05073	-0.895235	0.861635	0.913784	-1.10425	0.512349	1.45286	-0.873059	0.451567	1.10947	-0.837201	0.41194	1.09703	-0.833652	0.376527	0.867374	-0.963712
18.48	0.676305	1.00147	-0.939194	0.740983	0.916891	-0.890986	0.701663	0.515987	-0.933012	0.650264	0.0566536	-0.875579	0.654732	0.0210656	-0.838599	0.661122	0.0229099	-1.01449	0.587586	0.93205	-0.90804	0.514139	0.626788	-1.17716	0.502099	0.191091	-1.01299	0.492477	0.165163	-0.969525	0.451983	0.144677	-1.13959	0.670411	1.05854	-0.835448	0.894004	1.41705	-0.894909	0.921819	1.06818	-0.874565	0.953771	1.05058	-0.894742	0.862106	0.913727	-1.10397	0.512503	1.45311	-0.873413	0.451508	1.10972	-0.837863	0.411869	1.09729	-0.834374	0.376531	0.867689	-0.964537
